<svg width="180" height="52" viewBox="0 0 180 52" fill="none" xmlns="http://www.w3.org/2000/svg">
<path d="M173.095 52H6.6575C2.99754 52 0 49.0734 0 45.5V6.5C0 2.92663 2.99754 2.74817e-06 6.6575 2.74817e-06H173.095C176.755 2.74817e-06 179.753 2.92663 179.753 6.5V45.5C179.753 49.0734 176.755 52 173.095 52Z" fill="black"/>
<path d="M173.095 1.04163C176.177 1.04163 178.686 3.4905 178.686 6.5V45.5C178.686 48.5095 176.177 50.9584 173.095 50.9584H6.6575C3.57508 50.9584 1.06686 48.5095 1.06686 45.5V6.5C1.06686 3.4905 3.57508 1.04163 6.6575 1.04163H173.095ZM173.095 2.74817e-06H6.6575C2.99754 2.74817e-06 0 2.92663 0 6.5V45.5C0 49.0734 2.99754 52 6.6575 52H173.095C176.755 52 179.753 49.0734 179.753 45.5V6.5C179.753 2.92663 176.755 2.74817e-06 173.095 2.74817e-06Z" fill="#A6A6A6"/>
<path d="M13.9097 33.629C12.3522 33.6298 11.0865 32.3625 11.0863 30.8052L11.0857 22.1599C11.0851 20.604 12.3505 19.337 13.9061 19.3367C14.6624 19.3361 15.3705 19.6295 15.9043 20.1627C16.4382 20.696 16.7318 21.4053 16.7324 22.1593L16.7315 30.8049C16.7335 31.1756 16.6616 31.5429 16.52 31.8854C16.3785 32.228 16.1702 32.5389 15.9072 32.8001C15.6457 33.0637 15.3345 33.2727 14.9916 33.415C14.6487 33.5573 14.281 33.63 13.9097 33.629ZM13.9075 20.0952C12.7676 20.0946 11.8437 21.0208 11.8434 22.1599L11.8448 30.8044C11.8447 31.3521 12.0622 31.8775 12.4493 32.2651C12.8365 32.6526 13.3617 32.8705 13.9094 32.871C14.1807 32.871 14.4493 32.8176 14.6999 32.7137C14.9505 32.6099 15.1782 32.4576 15.3699 32.2657C15.5616 32.0738 15.7136 31.846 15.8171 31.5953C15.9207 31.3446 15.9739 31.0759 15.9735 30.8046V22.1587C15.9729 21.6112 15.755 21.0863 15.3676 20.6994C14.9802 20.3124 14.455 20.0951 13.9075 20.0952Z" fill="white"/>
<path d="M36.0524 20.5233L35.2936 20.523L16.6976 20.5255L15.9386 20.5258L15.938 19.7667C15.9363 16.6505 17.6339 13.7522 20.4146 12.0399L19.3335 10.0664C19.2013 9.8352 19.1681 9.54242 19.2452 9.27467C19.2843 9.14113 19.3495 9.01669 19.4371 8.90858C19.5247 8.80048 19.6329 8.71086 19.7554 8.64495C19.9069 8.56154 20.0772 8.51826 20.2501 8.51923C20.6332 8.51923 20.9839 8.72708 21.169 9.06289L22.3004 11.1242C23.4806 10.6923 24.7278 10.4728 25.9845 10.4759C27.28 10.4753 28.5222 10.6944 29.6981 11.1259L30.8279 9.0612C30.9179 8.89648 31.0506 8.75907 31.2121 8.66345C31.3736 8.56782 31.558 8.51751 31.7456 8.51783C31.9184 8.51728 32.0886 8.55961 32.2409 8.64101C32.3637 8.7069 32.472 8.79672 32.5594 8.90517C32.6468 9.01362 32.7116 9.1385 32.75 9.27242C32.7886 9.40448 32.8006 9.54291 32.7853 9.67965C32.7699 9.81639 32.7275 9.94872 32.6606 10.0689L31.58 12.0413C34.3562 13.7572 36.0519 16.6533 36.0516 19.7642L36.0524 20.5233ZM30.5551 12.3321L31.996 9.70105C32.0165 9.66799 32.0302 9.63109 32.036 9.5926C32.0418 9.55411 32.0398 9.51483 32.0299 9.47716C32.0201 9.43949 32.0027 9.40423 31.9788 9.37351C31.9548 9.34279 31.9249 9.31727 31.8908 9.2985C31.8567 9.27973 31.8191 9.26811 31.7804 9.26435C31.7416 9.26058 31.7025 9.26475 31.6654 9.2766C31.6283 9.28845 31.594 9.30774 31.5647 9.33327C31.5353 9.35881 31.5114 9.39007 31.4945 9.42514L30.0387 12.083C28.8142 11.539 27.4431 11.2333 25.9938 11.2347C24.5476 11.2333 23.1791 11.5379 21.9581 12.0799L20.501 9.42795C20.4832 9.39481 20.459 9.36553 20.4298 9.34182C20.4006 9.31812 20.367 9.30045 20.3309 9.28985C20.2948 9.27925 20.257 9.27593 20.2196 9.28009C20.1822 9.28424 20.146 9.29578 20.1131 9.31405C19.9734 9.38886 19.9219 9.56464 19.9998 9.70189L21.4412 12.331C18.609 13.7918 16.6954 16.5734 16.6971 19.767L35.2928 19.7647C35.2936 16.5723 33.3834 13.7963 30.5551 12.3321ZM21.7644 16.3982C21.5576 16.3981 21.3593 16.3158 21.2131 16.1695C21.067 16.0232 20.9849 15.8248 20.985 15.618C20.9851 15.4112 21.0674 15.2129 21.2137 15.0667C21.36 14.9206 21.5584 14.8385 21.7652 14.8386C21.972 14.839 22.1703 14.9213 22.3166 15.0675C22.4628 15.2138 22.5452 15.412 22.5457 15.6188C22.5454 15.8258 22.4629 16.0241 22.3164 16.1703C22.1699 16.3164 21.9713 16.3984 21.7644 16.3982ZM30.232 16.3965C30.1295 16.3967 30.0281 16.3766 29.9335 16.3375C29.8388 16.2984 29.7528 16.2411 29.6804 16.1686C29.6079 16.0962 29.5505 16.0103 29.5114 15.9156C29.4723 15.821 29.4522 15.7196 29.4523 15.6171C29.4531 15.4104 29.5354 15.2123 29.6815 15.066C29.8276 14.9197 30.0255 14.8369 30.2322 14.8358C30.4387 14.8375 30.6362 14.9205 30.7818 15.0668C30.9275 15.2131 31.0097 15.411 31.0105 15.6174C31.0105 15.7197 30.9904 15.821 30.9513 15.9155C30.9122 16.01 30.8548 16.0958 30.7826 16.1682C30.7103 16.2405 30.6244 16.2979 30.53 16.3371C30.4355 16.3763 30.3342 16.3964 30.232 16.3965ZM22.5437 43.4823C20.9876 43.482 19.7211 42.2164 19.7208 40.6591L19.7202 36.8434L18.9783 36.8442C18.5891 36.8456 18.2036 36.7696 17.844 36.6208C17.4844 36.472 17.158 36.2533 16.8836 35.9774C16.6072 35.703 16.3883 35.3764 16.2394 35.0166C16.0905 34.6568 16.0147 34.2709 16.0165 33.8815L16.0136 20.4864V19.7268H16.7727L35.2292 19.724L35.9886 19.7234V20.4825L35.9905 33.8793C35.9908 35.513 34.6616 36.8425 33.0284 36.8422L32.282 36.8428L32.2828 40.6571C32.2828 42.2135 31.0166 43.4806 29.4611 43.4806C29.0901 43.4823 28.7226 43.4102 28.3798 43.2684C28.0371 43.1265 27.726 42.9179 27.4647 42.6545C27.2012 42.3934 26.9922 42.0825 26.8499 41.7399C26.7077 41.3973 26.6349 41.0298 26.6359 40.6588V36.8428H25.3672V40.658C25.3666 42.2147 24.1007 43.4825 22.5437 43.4823Z" fill="white"/>
<path d="M16.7763 33.8812C16.7757 34.1706 16.8322 34.4574 16.9427 34.725C17.0531 34.9926 17.2153 35.2358 17.4199 35.4405C17.6245 35.6453 17.8676 35.8077 18.1351 35.9183C18.4026 36.029 18.6893 36.0857 18.9788 36.0853H20.4787L20.4804 40.6596C20.4801 41.7986 21.4054 42.7242 22.5434 42.7245C22.8146 42.7243 23.0831 42.6708 23.3336 42.5668C23.5841 42.4629 23.8117 42.3106 24.0034 42.1187C24.195 41.9268 24.347 41.699 24.4506 41.4483C24.5542 41.1977 24.6074 40.9291 24.6072 40.6579L24.6074 36.085L27.3944 36.0842L27.3941 40.6582C27.3952 41.7975 28.3216 42.7242 29.4593 42.722C30.6 42.7228 31.5248 41.7961 31.5245 40.6565L31.5231 36.0836L33.0286 36.0833C34.2434 36.0836 35.2314 35.0967 35.2314 33.8792L35.2289 20.4818L16.7729 20.4852L16.7763 33.8812ZM38.0925 33.6252C36.5355 33.6255 35.2691 32.3602 35.2694 30.8026L35.2671 22.1575C35.2677 20.6002 36.5322 19.3335 38.0883 19.3335C39.6464 19.3332 40.9138 20.5997 40.9135 22.1567L40.9143 30.8012C40.9146 32.3576 39.6493 33.6255 38.0925 33.6252ZM38.0897 20.0926C36.9498 20.0915 36.0262 21.0171 36.0262 22.1575L36.027 30.8023C36.0269 31.0735 36.0802 31.3421 36.1839 31.5926C36.2877 31.8432 36.4398 32.0708 36.6316 32.2626C36.8233 32.4543 37.051 32.6063 37.3016 32.71C37.5522 32.8137 37.8208 32.8669 38.092 32.8667C38.3631 32.8667 38.6316 32.8133 38.8821 32.7095C39.1326 32.6056 39.3601 32.4535 39.5518 32.2617C39.7435 32.0699 39.8955 31.8422 39.9991 31.5917C40.1027 31.3411 40.156 31.0726 40.1558 30.8015L40.1535 22.157C40.1537 21.8859 40.1005 21.6174 39.9968 21.3669C39.8932 21.1164 39.7412 20.8887 39.5495 20.697C39.3578 20.5053 39.1303 20.3532 38.8798 20.2495C38.6293 20.1458 38.3608 20.0925 38.0897 20.0926Z" fill="white"/>
<path d="M13.9074 20.0953C12.7674 20.0947 11.8435 21.0209 11.8433 22.1599L11.8447 30.8044C11.8445 31.0757 11.8978 31.3443 12.0015 31.5949C12.1052 31.8455 12.2573 32.0733 12.449 32.2651C12.6408 32.4569 12.8685 32.609 13.1191 32.7127C13.3698 32.8165 13.6384 32.8698 13.9096 32.8696C14.1808 32.8699 14.4494 32.8167 14.7 32.713C14.9506 32.6094 15.1783 32.4572 15.37 32.2654C15.5617 32.0736 15.7137 31.8458 15.8172 31.5952C15.9208 31.3445 15.9739 31.0759 15.9734 30.8047V22.1588C15.9728 21.6113 15.7549 21.0864 15.3675 20.6994C14.9801 20.3125 14.4549 20.0952 13.9074 20.0953ZM30.5551 12.3322L31.9959 9.70111C32.0327 9.63436 32.0414 9.55579 32.0203 9.48261C31.9991 9.40943 31.9498 9.34762 31.8832 9.31073C31.8164 9.27462 31.738 9.26639 31.6652 9.28783C31.5924 9.30928 31.531 9.35866 31.4945 9.4252L30.039 12.0839C28.8144 11.5388 27.4439 11.2334 25.9938 11.2348C24.5476 11.2334 23.1776 11.538 21.9581 12.0799L20.501 9.42801C20.4832 9.39491 20.459 9.36567 20.4298 9.34198C20.4007 9.31829 20.3671 9.30062 20.331 9.29C20.295 9.27938 20.2572 9.27602 20.2198 9.28011C20.1825 9.2842 20.1463 9.29566 20.1134 9.31383C20.0802 9.33158 20.0509 9.35577 20.0271 9.385C20.0034 9.41422 19.9857 9.44789 19.9751 9.48403C19.9645 9.52017 19.9613 9.55806 19.9655 9.59548C19.9697 9.6329 19.9814 9.66909 19.9998 9.70195L21.4412 12.3314C18.609 13.7919 16.6954 16.5735 16.6971 19.767L35.2928 19.7648C35.2936 16.5723 33.3834 13.7964 30.5551 12.3322ZM21.7644 16.3982C21.5575 16.3981 21.3593 16.3159 21.2131 16.1695C21.0669 16.0232 20.9849 15.8249 20.985 15.618C20.9851 15.4112 21.0674 15.2129 21.2137 15.0668C21.36 14.9206 21.5584 14.8386 21.7652 14.8387C21.972 14.8391 22.1703 14.9214 22.3166 15.0676C22.4628 15.2138 22.5452 15.4121 22.5457 15.6189C22.5454 15.8258 22.4629 16.0242 22.3164 16.1703C22.1699 16.3165 21.9713 16.3985 21.7644 16.3982ZM30.2319 16.3965C30.1296 16.3966 30.0282 16.3765 29.9336 16.3374C29.839 16.2982 29.753 16.2408 29.6806 16.1685C29.6082 16.0961 29.5508 16.0101 29.5116 15.9156C29.4724 15.821 29.4523 15.7196 29.4523 15.6172C29.4534 15.4106 29.5359 15.2127 29.6819 15.0664C29.8279 14.9202 30.0256 14.8374 30.2322 14.8359C30.4387 14.8376 30.6362 14.9206 30.7818 15.0669C30.9275 15.2132 31.0096 15.411 31.0104 15.6175C31.0106 15.7198 30.9905 15.8211 30.9514 15.9156C30.9123 16.0102 30.855 16.0961 30.7827 16.1684C30.7104 16.2408 30.6245 16.2982 30.53 16.3373C30.4355 16.3765 30.3342 16.3966 30.2319 16.3965ZM16.773 20.4854L16.7761 33.8827C16.7758 34.1721 16.8325 34.4586 16.9431 34.726C17.0537 34.9934 17.2159 35.2363 17.4205 35.4409C17.6252 35.6455 17.8681 35.8077 18.1355 35.9183C18.4029 36.0288 18.6895 36.0855 18.9789 36.0852L20.4788 36.0857L20.4804 40.66C20.4802 41.799 21.406 42.7249 22.5434 42.7249C23.6842 42.7249 24.6084 41.7982 24.6086 40.6586L24.6075 36.0855L27.3944 36.0846L27.3955 40.6586C27.3955 41.7968 28.3217 42.7246 29.4594 42.7224C30.6001 42.7232 31.5249 41.7965 31.5246 40.6569L31.5232 36.084L33.0284 36.0829C33.3178 36.083 33.6044 36.026 33.8717 35.9153C34.1391 35.8046 34.382 35.6423 34.5867 35.4377C34.7913 35.2331 34.9537 34.9902 35.0644 34.7229C35.1752 34.4555 35.2323 34.169 35.2323 33.8796L35.2298 20.4823L16.773 20.4854ZM40.1544 22.1568C40.1545 21.8857 40.1011 21.6172 39.9973 21.3668C39.8936 21.1163 39.7415 20.8887 39.5498 20.697C39.358 20.5053 39.1304 20.3533 38.8799 20.2496C38.6294 20.1459 38.3609 20.0926 38.0898 20.0927C36.9499 20.0916 36.0263 21.0172 36.0263 22.1577L36.0279 30.8027C36.0278 31.0738 36.081 31.3423 36.1847 31.5928C36.2884 31.8434 36.4404 32.071 36.6321 32.2627C36.8238 32.4544 37.0514 32.6064 37.3019 32.7101C37.5524 32.8137 37.8209 32.867 38.092 32.8668C38.3632 32.8669 38.6317 32.8135 38.8822 32.7097C39.1327 32.6059 39.3603 32.4537 39.552 32.2619C39.7436 32.0701 39.8956 31.8424 39.9992 31.5919C40.1029 31.3413 40.1561 31.0728 40.1559 30.8016L40.1544 22.1568Z" fill="#A4C439"/>
<path d="M52.965 20.0715C52.042 20.0715 51.1407 20.0152 50.261 19.9025V10.588C50.703 10.4927 51.184 10.419 51.704 10.367C52.2283 10.315 52.7288 10.289 53.2055 10.289C54.9778 10.289 56.3168 10.6985 57.2225 11.5175C58.1282 12.3322 58.581 13.5563 58.581 15.19C58.581 16.8453 58.113 18.0738 57.177 18.8755C56.2453 19.6728 54.8413 20.0715 52.965 20.0715ZM53.186 19.142C54.6203 19.142 55.6863 18.8213 56.384 18.18C57.086 17.5343 57.437 16.5355 57.437 15.1835C57.437 13.8358 57.086 12.837 56.384 12.187C55.6863 11.537 54.629 11.212 53.212 11.212C52.6617 11.212 52.0485 11.2662 51.3725 11.3745V19.0315C51.8882 19.1052 52.4927 19.142 53.186 19.142ZM63.5123 20.1235C62.8189 20.1235 62.2188 19.9913 61.7118 19.727C61.2048 19.4627 60.8104 19.0575 60.5288 18.5115C60.2514 17.9655 60.1128 17.2852 60.1128 16.4705C60.1128 15.6688 60.2514 14.9972 60.5288 14.4555C60.8061 13.9138 61.1983 13.5087 61.7053 13.24C62.2123 12.9713 62.8146 12.837 63.5123 12.837C64.5826 12.837 65.4146 13.1403 66.0083 13.747C66.6063 14.3493 66.9053 15.2572 66.9053 16.4705C66.9053 17.2722 66.7644 17.946 66.4828 18.492C66.2054 19.038 65.8111 19.4475 65.2998 19.7205C64.7928 19.9892 64.1969 20.1235 63.5123 20.1235ZM63.5123 19.233C65.0419 19.233 65.8068 18.3165 65.8068 16.4835C65.8068 15.5215 65.6074 14.8238 65.2088 14.3905C64.8144 13.9528 64.2489 13.734 63.5123 13.734C62.7756 13.734 62.2079 13.9507 61.8093 14.384C61.4149 14.8173 61.2178 15.5107 61.2178 16.464C61.2178 18.31 61.9826 19.233 63.5123 19.233ZM78.1713 12.9475H79.2113L76.9103 20H75.6103L73.6018 13.9485L71.5868 20H70.2868L67.9728 12.9475H69.0583L70.9888 18.934L72.9648 12.9475H74.2648L76.2343 18.921L78.1713 12.9475ZM80.8794 12.9475H81.7894L81.8674 13.7535H81.9389C82.2812 13.4588 82.6734 13.2335 83.1154 13.0775C83.5574 12.9172 84.0189 12.837 84.4999 12.837C85.3275 12.837 85.9732 13.0602 86.4369 13.5065C86.9049 13.9528 87.1389 14.6505 87.1389 15.5995V20H86.0469V15.632C86.0469 14.982 85.8952 14.514 85.5919 14.228C85.2929 13.9377 84.853 13.7925 84.2724 13.7925C83.8607 13.7925 83.449 13.8705 83.0374 14.0265C82.6257 14.1825 82.2704 14.4208 81.9714 14.7415V20H80.8794V12.9475ZM89.3217 20V9.496H90.4137V20H89.3217ZM95.6822 20.1235C94.9889 20.1235 94.3887 19.9913 93.8817 19.727C93.3747 19.4627 92.9804 19.0575 92.6987 18.5115C92.4214 17.9655 92.2827 17.2852 92.2827 16.4705C92.2827 15.6688 92.4214 14.9972 92.6987 14.4555C92.976 13.9138 93.3682 13.5087 93.8752 13.24C94.3822 12.9713 94.9845 12.837 95.6822 12.837C96.7525 12.837 97.5845 13.1403 98.1782 13.747C98.7762 14.3493 99.0752 15.2572 99.0752 16.4705C99.0752 17.2722 98.9344 17.946 98.6527 18.492C98.3754 19.038 97.981 19.4475 97.4697 19.7205C96.9627 19.9892 96.3669 20.1235 95.6822 20.1235ZM95.6822 19.233C97.2119 19.233 97.9767 18.3165 97.9767 16.4835C97.9767 15.5215 97.7774 14.8238 97.3787 14.3905C96.9844 13.9528 96.4189 13.734 95.6822 13.734C94.9455 13.734 94.3779 13.9507 93.9792 14.384C93.5849 14.8173 93.3877 15.5107 93.3877 16.464C93.3877 18.31 94.1525 19.233 95.6822 19.233ZM103.33 12.837C104.014 12.837 104.575 12.9193 105.013 13.084C105.455 13.2487 105.787 13.5238 106.008 13.9095C106.233 14.2952 106.346 14.8152 106.346 15.4695V20H105.423L105.345 19.2005H105.273C105.009 19.4822 104.666 19.7053 104.246 19.87C103.83 20.0347 103.392 20.117 102.933 20.117C102.43 20.117 101.999 20.039 101.64 19.883C101.284 19.7227 101.013 19.4973 100.827 19.207C100.645 18.9167 100.554 18.5765 100.554 18.1865C100.554 17.5755 100.775 17.1032 101.217 16.7695C101.663 16.4315 102.376 16.2148 103.356 16.1195L105.267 15.9115V15.4175C105.267 14.9712 105.191 14.6245 105.039 14.3775C104.887 14.1262 104.662 13.9507 104.363 13.851C104.068 13.7513 103.681 13.7015 103.2 13.7015C102.866 13.7015 102.511 13.7297 102.134 13.786C101.757 13.8423 101.393 13.929 101.042 14.046V13.188C101.371 13.0753 101.739 12.9887 102.147 12.928C102.554 12.8673 102.948 12.837 103.33 12.837ZM103.18 19.311C103.57 19.311 103.945 19.2395 104.305 19.0965C104.664 18.9492 104.985 18.7325 105.267 18.4465V16.62L103.421 16.8215C102.792 16.8952 102.342 17.0338 102.069 17.2375C101.8 17.4412 101.666 17.7293 101.666 18.102C101.666 18.4877 101.791 18.7867 102.043 18.999C102.294 19.207 102.673 19.311 103.18 19.311ZM111.292 20.117C110.664 20.117 110.111 19.9935 109.635 19.7465C109.162 19.4952 108.79 19.1095 108.517 18.5895C108.248 18.0695 108.114 17.413 108.114 16.62C108.114 15.3763 108.447 14.4338 109.115 13.7925C109.782 13.1512 110.755 12.8305 112.033 12.8305C112.527 12.8305 113.036 12.8782 113.561 12.9735V9.496H114.653V20H113.73L113.658 19.1875H113.587C113.314 19.4822 112.98 19.7118 112.586 19.8765C112.191 20.0368 111.76 20.117 111.292 20.117ZM111.52 19.2005C111.918 19.2005 112.293 19.1247 112.644 18.973C112.995 18.8213 113.301 18.583 113.561 18.258V13.89C113.101 13.773 112.603 13.7145 112.066 13.7145C111.104 13.7145 110.389 13.9442 109.921 14.4035C109.453 14.8628 109.219 15.5713 109.219 16.529C109.219 18.31 109.986 19.2005 111.52 19.2005Z" fill="white"/>
<path d="M52.94 40H49.26L55.32 26.32H58.46L64.5 40H60.84L59.9 37.76H53.86L52.94 40ZM55.02 34.9H58.76L56.88 30.36L55.02 34.9ZM71.8292 30C72.4292 30 72.9692 30.0933 73.4492 30.28C73.9426 30.4533 74.3626 30.7067 74.7092 31.04C75.0559 31.36 75.3226 31.7533 75.5092 32.22C75.6959 32.6733 75.7892 33.18 75.7892 33.74V40H72.5492V34.7C72.5492 34.0867 72.3892 33.64 72.0692 33.36C71.7626 33.08 71.3759 32.94 70.9092 32.94C70.6426 32.94 70.3492 32.9533 70.0292 32.98C69.7092 32.9933 69.3426 33.0133 68.9292 33.04V40H65.6892V30.48C66.7692 30.3467 67.8426 30.2333 68.9092 30.14C69.9759 30.0467 70.9492 30 71.8292 30ZM88.1516 39.84C87.3249 39.9333 86.6249 40.0067 86.0516 40.06C85.4782 40.1133 84.9716 40.1533 84.5316 40.18C84.1049 40.2067 83.7116 40.22 83.3516 40.22C82.9916 40.2333 82.6182 40.24 82.2316 40.24C81.6316 40.24 81.0449 40.14 80.4716 39.94C79.9116 39.7267 79.4116 39.4067 78.9716 38.98C78.5316 38.5533 78.1782 38.02 77.9116 37.38C77.6449 36.7267 77.5116 35.96 77.5116 35.08C77.5249 34.32 77.6382 33.6267 77.8516 33C78.0782 32.3733 78.3982 31.84 78.8116 31.4C79.2382 30.96 79.7582 30.62 80.3716 30.38C80.9982 30.1267 81.7116 30 82.5116 30C82.8849 30 83.2782 30.02 83.6916 30.06C84.1182 30.0867 84.5249 30.1267 84.9116 30.18V25.8H88.1516V39.84ZM83.0516 32.62C82.1849 32.62 81.5649 32.8533 81.1916 33.32C80.8182 33.7733 80.6316 34.36 80.6316 35.08C80.6316 35.8533 80.8249 36.4733 81.2116 36.94C81.6116 37.3933 82.1916 37.62 82.9516 37.62C83.1116 37.62 83.3516 37.6133 83.6716 37.6C83.9916 37.5733 84.4049 37.5333 84.9116 37.48V32.78C84.5649 32.7267 84.2249 32.6867 83.8916 32.66C83.5582 32.6333 83.2782 32.62 83.0516 32.62ZM97.1906 33.18C96.0706 33.18 94.964 33.22 93.8706 33.3V40H90.6306V30.66C91.7106 30.4733 92.8306 30.3267 93.9906 30.22C95.1506 30.1 96.2173 30.04 97.1906 30.04V33.18ZM103.461 29.92C104.274 29.92 105.014 30.0467 105.681 30.3C106.361 30.54 106.941 30.8867 107.421 31.34C107.914 31.7933 108.294 32.34 108.561 32.98C108.827 33.62 108.961 34.3267 108.961 35.1C108.961 35.8867 108.827 36.6 108.561 37.24C108.294 37.88 107.914 38.4333 107.421 38.9C106.941 39.3533 106.361 39.7067 105.681 39.96C105.014 40.2133 104.274 40.34 103.461 40.34C102.647 40.34 101.901 40.2133 101.221 39.96C100.554 39.7067 99.9741 39.3533 99.4808 38.9C99.0008 38.4333 98.6274 37.88 98.3608 37.24C98.0941 36.6 97.9608 35.8867 97.9608 35.1C97.9608 34.3267 98.0941 33.62 98.3608 32.98C98.6274 32.34 99.0008 31.7933 99.4808 31.34C99.9741 30.8867 100.554 30.54 101.221 30.3C101.901 30.0467 102.647 29.92 103.461 29.92ZM103.461 37.56C104.167 37.56 104.741 37.34 105.181 36.9C105.634 36.4467 105.861 35.8467 105.861 35.1C105.861 34.38 105.634 33.8 105.181 33.36C104.741 32.92 104.167 32.7 103.461 32.7C102.754 32.7 102.174 32.92 101.721 33.36C101.281 33.8 101.061 34.38 101.061 35.1C101.061 35.8467 101.281 36.4467 101.721 36.9C102.174 37.34 102.754 37.56 103.461 37.56ZM112.326 29.12C111.766 29.12 111.293 28.94 110.906 28.58C110.533 28.22 110.346 27.76 110.346 27.2C110.346 26.6267 110.533 26.16 110.906 25.8C111.293 25.4267 111.766 25.24 112.326 25.24C112.86 25.24 113.32 25.4267 113.706 25.8C114.093 26.16 114.286 26.6267 114.286 27.2C114.286 27.48 114.233 27.74 114.126 27.98C114.02 28.2067 113.873 28.4067 113.686 28.58C113.513 28.74 113.306 28.8733 113.066 28.98C112.84 29.0733 112.593 29.12 112.326 29.12ZM113.946 40H110.706V30.3H113.946V40ZM126.335 39.84C125.508 39.9333 124.808 40.0067 124.235 40.06C123.662 40.1133 123.155 40.1533 122.715 40.18C122.288 40.2067 121.895 40.22 121.535 40.22C121.175 40.2333 120.802 40.24 120.415 40.24C119.815 40.24 119.228 40.14 118.655 39.94C118.095 39.7267 117.595 39.4067 117.155 38.98C116.715 38.5533 116.362 38.02 116.095 37.38C115.828 36.7267 115.695 35.96 115.695 35.08C115.708 34.32 115.822 33.6267 116.035 33C116.262 32.3733 116.582 31.84 116.995 31.4C117.422 30.96 117.942 30.62 118.555 30.38C119.182 30.1267 119.895 30 120.695 30C121.068 30 121.462 30.02 121.875 30.06C122.302 30.0867 122.708 30.1267 123.095 30.18V25.8H126.335V39.84ZM121.235 32.62C120.368 32.62 119.748 32.8533 119.375 33.32C119.002 33.7733 118.815 34.36 118.815 35.08C118.815 35.8533 119.008 36.4733 119.395 36.94C119.795 37.3933 120.375 37.62 121.135 37.62C121.295 37.62 121.535 37.6133 121.855 37.6C122.175 37.5733 122.588 37.5333 123.095 37.48V32.78C122.748 32.7267 122.408 32.6867 122.075 32.66C121.742 32.6333 121.462 32.62 121.235 32.62ZM136.045 40H132.365L138.425 26.32H141.565L147.605 40H143.945L143.005 37.76H136.965L136.045 40ZM138.125 34.9H141.865L139.985 30.36L138.125 34.9ZM154.575 30C155.335 30 156.008 30.1267 156.595 30.38C157.181 30.62 157.681 30.9667 158.095 31.42C158.508 31.86 158.828 32.3933 159.055 33.02C159.281 33.6467 159.408 34.34 159.435 35.1C159.435 35.9133 159.301 36.6333 159.035 37.26C158.781 37.8867 158.435 38.42 157.995 38.86C157.568 39.2867 157.068 39.6133 156.495 39.84C155.921 40.0533 155.328 40.16 154.715 40.16C154.261 40.16 153.835 40.1533 153.435 40.14C153.035 40.14 152.568 40.1133 152.035 40.06V44.5H148.795V30.48C149.928 30.3333 150.941 30.22 151.835 30.14C152.741 30.0467 153.655 30 154.575 30ZM154.135 37.5C154.455 37.5 154.748 37.44 155.015 37.32C155.281 37.2 155.508 37.04 155.695 36.84C155.895 36.6267 156.048 36.38 156.155 36.1C156.261 35.8067 156.315 35.4933 156.315 35.16C156.315 34.4133 156.128 33.8067 155.755 33.34C155.395 32.86 154.815 32.62 154.015 32.62C153.655 32.62 153.321 32.6333 153.015 32.66C152.708 32.6733 152.381 32.6933 152.035 32.72V37.36C152.541 37.4267 152.948 37.4667 153.255 37.48C153.575 37.4933 153.868 37.5 154.135 37.5ZM165.053 33.62L167.913 30.3H171.693L168.213 34.36L171.993 40H168.273L165.993 36.62H164.613V40H161.373V25.8H164.613V33.62H165.053Z" fill="white"/>
</svg>
